<svg xmlns="http://www.w3.org/2000/svg" enable-background="new 0 0 24 24" viewBox="0 0 24 24"><path fill="#303c42" d="M20.853,2.146c-0.152-0.152-0.384-0.189-0.577-0.094L14.69,4.845l-2.762-4.603   c-0.11-0.185-0.328-0.275-0.537-0.231c-0.21,0.046-0.366,0.222-0.389,0.436L10.078,9.23L5.723,7.052   c-0.146-0.073-0.316-0.071-0.46,0.006c-0.143,0.077-0.239,0.218-0.26,0.379l-2,16c-0.028,0.228,0.102,0.445,0.315,0.528   C3.378,23.989,3.439,24,3.5,24c0.159,0,0.312-0.076,0.408-0.211l5.777-8.185l3.639,1.365c0.241,0.091,0.509-0.016,0.623-0.245l7-14   C21.044,2.531,21.006,2.298,20.853,2.146z"/><path fill="#ffca28" d="M13.254,15.874l-3.578-1.342c-0.213-0.08-0.453-0.006-0.584,0.18l-4.848,6.868L5.908,8.263   l4.368,2.184c0.147,0.074,0.319,0.069,0.464-0.009c0.144-0.079,0.24-0.223,0.257-0.386l0.844-8.013l2.23,3.718   c0.134,0.223,0.419,0.305,0.652,0.19l4.658-2.329L13.254,15.874z"/><path fill="#fff" d="M11.032,10.447c0.147,0.074,0.319,0.069,0.464-0.009   c0.144-0.079,0.24-0.223,0.257-0.386l0.731-6.941l-0.643-1.072l-0.844,8.013c-0.012,0.118-0.076,0.217-0.16,0.297L11.032,10.447z" opacity=".2"/><polygon fill="#fff" points="6.619 8.618 5.908 8.263 4.244 21.579 5.162 20.278" opacity=".2"/><polygon points="17.065 4.776 12.94 15.756 13.254 15.874 19.382 3.617" opacity=".1"/><path fill="#ffca28" d="M10.207,14.531c-0.121-0.061-0.254-0.032-0.354,0.066l1.96,0.735L10.207,14.531z"/><linearGradient id="a" x1="4.101" x2="15.413" y1="9.316" y2="14.591" gradientUnits="userSpaceOnUse"><stop offset="0" stop-color="#fff" stop-opacity=".2"/><stop offset="1" stop-color="#fff" stop-opacity="0"/></linearGradient><path fill="url(#a)" d="M20.853,2.146c-0.152-0.152-0.384-0.189-0.577-0.094L14.69,4.845l-2.762-4.603   c-0.11-0.185-0.328-0.275-0.537-0.231c-0.21,0.046-0.366,0.222-0.389,0.436L10.078,9.23L5.723,7.052   c-0.146-0.073-0.316-0.071-0.46,0.006c-0.143,0.077-0.239,0.218-0.26,0.379l-2,16c-0.028,0.228,0.102,0.445,0.315,0.528   C3.378,23.989,3.439,24,3.5,24c0.159,0,0.312-0.076,0.408-0.211l5.777-8.185l3.639,1.365c0.241,0.091,0.509-0.016,0.623-0.245l7-14   C21.044,2.531,21.006,2.298,20.853,2.146z"/></svg>